<svg id="Layer_1" data-name="Layer 1" xmlns="http://www.w3.org/2000/svg" viewBox="0 0 428.94 444.6"><defs><style>.cls-1{fill:#fff;}.cls-2{fill:#00e17b;}</style></defs><title>1</title><path class="cls-1" d="M350.24,125C341.91,75.43,300.12,37.64,250,37.64a98.31,98.31,0,0,0-37.68,7.47,8.79,8.79,0,0,0-4.68,11.28,8.28,8.28,0,0,0,10.89,4.85A82.12,82.12,0,0,1,250,55c46.82,0,84.93,39.43,85,87.94-.71,1.62-6.4,6.84-24.17,11.45-16.58,4.3-38.2,6.67-60.86,6.67s-44.28-2.37-60.86-6.67c-17.77-4.61-23.46-9.83-24.17-11.45a90.32,90.32,0,0,1,6-32.42,8.79,8.79,0,0,0-4.68-11.28,8.27,8.27,0,0,0-10.88,4.85,106.89,106.89,0,0,0-5.7,20.88C113,130.73,35.5,147.36,35.5,185.05c0,20.24,23,37.49,66.52,49.89,19.56,5.57,42.27,9.91,67,12.87L111.2,471.31a8.71,8.71,0,0,0,5.92,10.63,8.24,8.24,0,0,0,2.18.3,8.43,8.43,0,0,0,8.08-6.44l58.48-226.21c20.46,1.88,42,2.86,64.11,2.86s43.64-1,64.11-2.86L372.56,475.8a8.43,8.43,0,0,0,8.08,6.44,8.24,8.24,0,0,0,2.18-.3,8.71,8.71,0,0,0,5.92-10.63L331,247.81c24.69-3,47.4-7.3,67-12.87,43.52-12.4,66.52-29.65,66.52-49.89C464.44,147.35,386.92,130.73,350.24,125Zm43.24,93.21c-38.22,10.89-89.19,16.89-143.51,16.89s-105.29-6-143.51-16.89c-40-11.39-54.2-25-54.2-33.14,0-10.87,25.7-30.73,95.92-42.26v.36c0,27.86,64,35.29,101.79,35.29S351.76,171,351.76,143.15c0-.12,0-.24,0-.36,70.22,11.53,95.93,31.39,95.93,42.26,0,8.17-14.19,21.75-54.2,33.14Z" transform="translate(-35.5 -37.64)"/><path class="cls-1" d="M250,198.08h0a8.69,8.69,0,1,0,8.38,8.68A8.53,8.53,0,0,0,250,198.08Z" transform="translate(-35.5 -37.64)"/><path class="cls-1" d="M189.38,193.78h0a8.69,8.69,0,1,0,8.39,8.68A8.53,8.53,0,0,0,189.37,193.78Z" transform="translate(-35.5 -37.64)"/><path class="cls-1" d="M130.53,177.71h0a8.69,8.69,0,1,0,8.38,8.68A8.54,8.54,0,0,0,130.53,177.71Z" transform="translate(-35.5 -37.64)"/><path class="cls-1" d="M310.56,193.78a8.69,8.69,0,0,0,0,17.36h0a8.69,8.69,0,0,0,0-17.36Z" transform="translate(-35.5 -37.64)"/><path class="cls-1" d="M369.41,177.71a8.69,8.69,0,0,0,0,17.37h0a8.69,8.69,0,0,0,0-17.37Z" transform="translate(-35.5 -37.64)"/><path class="cls-2" d="M271.36,391.78l-12.21.43-8.82-2.58,1.2-2.29a15.66,15.66,0,0,0,2.48.2c9.59,0,17.39-8.53,17.39-19s-7.8-19-17.39-19-17.38,8.53-17.38,19a19.88,19.88,0,0,0,5.28,13.64h0a2.44,2.44,0,0,1-3.67.8l-4.32-3.42-4-10.72a5.21,5.21,0,0,0-7-3.23A6,6,0,0,0,220,373.2l4.55,12.29A5.9,5.9,0,0,0,226.4,388l8.76,6.91-3.25,6.15-17.06,5a5.61,5.61,0,0,0-3.78,4.14l-4.58,18.67a5.94,5.94,0,0,0,3.78,7.17,5.19,5.19,0,0,0,1.39.2,5.47,5.47,0,0,0,5.17-4.34l3.77-15.41,7.27-2.13-1.34,5.49a6.22,6.22,0,0,0,1.38,5.65l11.86,13a5,5,0,0,0,7.42.15,6.47,6.47,0,0,0,0-8.63l-9.49-10.37,2.76-11.28,4.37-8.27,12.35,3.63a5.06,5.06,0,0,0,1.39.19h.17l13-.45a5.67,5.67,0,0,0,5.18-6,5.59,5.59,0,0,0-5.52-5.66ZM254,361.21c3.69,0,6.69,3.28,6.69,7.31s-3,7.32-6.69,7.32-6.69-3.28-6.69-7.32S250.32,361.21,254,361.21Z" transform="translate(-35.5 -37.64)"/><path class="cls-1" d="M181,83.3a9.42,9.42,0,0,0,0-18.83h0a9.42,9.42,0,0,0,0,18.83Z" transform="translate(-35.5 -37.64)"/></svg>